<?xml version="1.0" encoding="utf-8"?>
<!-- Generator: Adobe Illustrator 28.0.0, SVG Export Plug-In . SVG Version: 6.00 Build 0)  -->
<svg version="1.1" id="Camada_1" xmlns="http://www.w3.org/2000/svg" xmlns:xlink="http://www.w3.org/1999/xlink" x="0px" y="0px"
	 viewBox="0 0 414.3 413.4" style="enable-background:new 0 0 414.3 413.4;" xml:space="preserve">
<style type="text/css">
	.st0{fill:#ED1C24;}
	.st1{fill:#FFFFFF;}
</style>
<g>
	<path class="st0" d="M205.5,413.4C92.4,413.7-1,319.3,0,204.7C1,95.9,89.3-0.8,208.5,0c114.4,0.7,206.2,92.7,205.8,207.2
		C414,312.3,333.1,411.8,205.5,413.4z M207,78.7c0-0.1,0-0.1,0-0.2c-12.5,0-25,0-37.5,0c-6.8,0-7.4,0.8-7.4,7.8
		c-0.1,22.6-0.5,45.3-0.7,67.9c0,4-1.7,5.6-5.7,5.6c-22.2,0.2-44.5,0.7-66.7,1c-7.8,0.1-9.4,1.5-9.4,9.4c0.2,14.8,0.6,29.6,0.7,44.4
		c0.1,9.1,0,18.2,0,27.3c0,4.2,1.6,6.7,6.4,6.8c22,0.4,43.9,1.1,65.9,1.6c8.6,0.2,9.3,0.8,9.5,9.4c0.4,20.6,0.8,41.3,1.1,61.9
		c0.1,7.7,1,8.7,8.5,8.8c7.6,0,15.3,0,22.9,0c16.8,0,33.5-0.1,50.3-0.1c3.6,0,5.2-1.4,5.2-5.5c0.1-21,0.5-41.9,0.8-62.9
		c0.1-11,3.8-14.2,14.6-13.9c20,0.5,39.9,0.7,59.9,1c3.9,0.1,6.3-1.6,6.5-5.8c0.4-6.6,1.3-13.3,1.3-19.9c0.1-17.6,0-35.3-0.2-52.9
		c-0.1-6.9-2.2-8.9-9-9c-20.5-0.3-41-0.6-61.5-0.9c-8.6-0.1-10.6-2-10.6-10.5c-0.2-21.8-0.5-43.6-0.6-65.5c0-4.4-1.3-6.2-6-6.1
		C232.7,78.9,219.9,78.7,207,78.7z"/>
	<path class="st1" d="M207,78.7c12.8,0,25.7,0.2,38.5-0.1c4.7-0.1,6,1.7,6,6.1c0.1,21.8,0.4,43.6,0.6,65.5c0.1,8.5,2,10.4,10.6,10.5
		c20.5,0.2,41,0.5,61.5,0.9c6.8,0.1,9,2.2,9,9c0.2,17.6,0.3,35.3,0.2,52.9c0,6.6-1,13.2-1.3,19.9c-0.2,4.2-2.6,5.8-6.5,5.8
		c-20-0.3-39.9-0.5-59.9-1c-10.8-0.3-14.5,3-14.6,13.9c-0.3,21-0.7,41.9-0.8,62.9c0,4-1.6,5.4-5.2,5.5c-16.8,0-33.5,0.1-50.3,0.1
		c-7.6,0-15.3,0.1-22.9,0c-7.5,0-8.4-1.1-8.5-8.8c-0.3-20.6-0.7-41.3-1.1-61.9c-0.2-8.6-0.9-9.2-9.5-9.4c-22-0.5-43.9-1.2-65.9-1.6
		c-4.9-0.1-6.4-2.6-6.4-6.8c0-9.1,0.1-18.2,0-27.3c-0.2-14.8-0.6-29.6-0.7-44.4c-0.1-7.8,1.5-9.3,9.4-9.4c22.2-0.3,44.5-0.7,66.7-1
		c4,0,5.7-1.6,5.7-5.6c0.2-22.6,0.6-45.3,0.7-67.9c0-7,0.6-7.9,7.4-7.8c12.5,0,25,0,37.5,0C207,78.6,207,78.7,207,78.7z"/>
</g>
</svg>
